<?xml version="1.0" encoding="utf-8"?>
<!-- Generator: Adobe Illustrator 19.0.0, SVG Export Plug-In . SVG Version: 6.00 Build 0)  -->
<svg version="1.1" id="Layer_1" xmlns="http://www.w3.org/2000/svg" xmlns:xlink="http://www.w3.org/1999/xlink" x="0px" y="0px"
	 viewBox="0 0 438.4 131" style="enable-background:new 0 0 438.4 131;" xml:space="preserve">
<style type="text/css">
	.st0{fill:#FFAB00;}
	.st1{fill:#DA771B;}
	.st2{fill:#0271CA;}
	.st3{fill:none;}
</style>
<g>
	<path class="st0" d="M42,100.6l0,0.4v24c0,3.3,2.7,6,6,6s6-2.7,6-6v-24l0-0.4c-0.6,0.3-1.2,0.6-1.7,0.8c-2.8,0.9-5.8,0.9-8.5,0
		C43.2,101.1,42.6,100.9,42,100.6z"/>
	<path class="st1" d="M54,100.6c-0.6,0.3-1.2,0.6-1.7,0.8c-2.8,0.9-5.8,0.9-8.5,0c-0.6-0.2-1.2-0.4-1.7-0.8v-6
		c0.6,0.3,1.2,0.6,1.7,0.8c2.8,0.9,5.8,0.9,8.5,0c0.6-0.2,1.2-0.4,1.7-0.8V100.6z"/>
	<path class="st0" d="M32.4,9.9c5.5-5.5,8.2-8.2,11.3-9.2c2.8-0.9,5.8-0.9,8.5,0c3.1,1,5.9,3.8,11.3,9.2l22.5,22.5
		c5.5,5.5,8.2,8.2,9.2,11.3c0.9,2.8,0.9,5.8,0,8.5c-1,3.2-3.8,5.9-9.2,11.3L63.6,86.1c-5.5,5.5-8.2,8.2-11.3,9.2
		c-2.8,0.9-5.8,0.9-8.5,0c-3.2-1-5.9-3.8-11.3-9.2L9.9,63.6c-5.5-5.5-8.2-8.2-9.2-11.3c-0.9-2.8-0.9-5.8,0-8.5
		c1-3.1,3.8-5.9,9.2-11.3L32.4,9.9z"/>
	<path class="st1" d="M20.1,46C21.2,61.4,34.6,73,50,72c13.9-1,25-12,26-26h-6C68.8,58.1,58.1,67,46,65.9C35.4,65,27,56.6,26.1,46
		H20.1L20.1,46z"/>
	<path class="st2" d="M182.1,52.1h12.4v1.4c0,9.4-0.1,19.4,0,28.8c0,2.2,0.3,4.4,0.9,6.5c1.4,4.8,5.3,6.2,9.7,6.1
		c5.9-0.3,9-3.6,9.4-9.8c0.1-1.2,0.1-2.4,0.1-3.7V52.1h12.4v0.7c0,10.5,0,21.6-0.1,32.1c0.1,5.4-2,10.5-5.8,14.4
		c-3.1,3.2-6.9,4.9-11.2,5.8c-5.4,1-10.7,0.7-15.7-1.5c-6.5-2.8-10.4-7.7-11.7-14.6c-0.4-2-0.5-4.1-0.5-6.1c-0.1-9.7,0-20,0-29.7
		C182,52.9,182,52.5,182.1,52.1L182.1,52.1z M335.5,52.1h12.4v1.4c0,9.4-0.1,19.4,0,28.8c0,2.2,0.3,4.4,0.9,6.5
		c1.4,4.8,5.3,6.2,9.7,6.1c5.9-0.3,9-3.6,9.4-9.8c0.1-1.2,0.1-2.4,0.1-3.7V52.1h12.4v0.7c0,10.5,0,21.6-0.1,32.1
		c0.1,5.4-2,10.5-5.8,14.4c-3.1,3.2-6.9,4.9-11.2,5.8c-5.4,1-10.6,0.7-15.7-1.5c-6.5-2.8-10.4-7.7-11.8-14.6c-0.4-2-0.5-4.1-0.5-6.1
		c0-9.7,0-20,0-29.7C335.5,52.9,335.5,52.5,335.5,52.1L335.5,52.1z"/>
	<path class="st3" d="M156,62.1c-6.4-2.3-14-0.7-17.3,6.2c-3,6.2-3,12.6-0.4,19c1.9,4.6,5.5,7.4,10.6,7.9c5.6,0.6,10.3-1.1,13.4-6.1
		c2.1-3.3,2.8-7.1,2.8-11C165.1,71.1,162.4,64.4,156,62.1z"/>
	<path class="st3" d="M309.4,62.1c-6.4-2.3-14-0.7-17.3,6.2c-3,6.2-3,12.6-0.4,19c1.9,4.6,5.5,7.4,10.6,7.9
		c5.6,0.6,10.3-1.1,13.4-6.1c2.1-3.3,2.8-7.1,2.8-11C318.5,71.1,315.8,64.4,309.4,62.1z"/>
	<path class="st2" d="M167.5,55.6L167.5,55.6c-5.2-3.9-11.2-5.4-17.7-4.6c-4.7,0.6-9,2.2-12.3,5.7c-0.1,0.1-0.2,0.2-0.4,0.3
		l-0.3,0.2V32h-12.5v44.4c0,21.6,12.5,29.2,27.5,29.2c4.4,0,8.7-1.1,12.6-3.1c5.5-2.8,9.6-7.6,11.5-13.4c2.2-6.3,2.5-13,0.9-19.5
		C175.4,64,172.1,59,167.5,55.6z M162.3,89.1c-3.1,4.9-7.8,6.7-13.4,6.1c-5.1-0.5-8.7-3.2-10.6-7.9c-2.6-6.4-2.6-12.8,0.4-19
		c3.3-6.9,10.9-8.5,17.3-6.2c6.4,2.3,9.1,9.1,9.1,16C165.1,82,164.4,85.8,162.3,89.1z"/>
	<path class="st2" d="M425.9,32v24.5c-0.5-0.4-0.9-0.7-1.4-1.1c-0.9-0.7-1.8-1.4-2.8-2c-5.2-3-10.9-3.1-16.5-2
		c-9.1,1.7-15.2,7.2-18.3,15.7c-2.7,7.3-2.7,15.4,0.1,22.7c2.1,5.7,6,10,11.4,12.9c4.5,2.4,9.7,3.3,14.7,2.6
		c5.2-0.6,9.9-2.4,13.3-6.6l0.7-0.9v6.1h5.2c1.4,0,2.7,0,4.1,0h2V32H425.9z M423.2,89.3c-1.9,3.2-5.2,5.3-8.9,5.7
		c-3.5,0.5-6.9,0.1-9.9-1.9c-3.2-2-5-5.1-5.9-8.6c-1.2-4.6-1.1-9.5,0.4-14c3-9.5,12.6-11.2,19.4-8.1c6.7,3.2,8.1,10.6,8.1,15.9
		C426.4,82.2,425.3,86,423.2,89.3z"/>
	<path class="st2" d="M320.9,55.6L320.9,55.6c-5.2-3.9-11.2-5.4-17.7-4.6c-4.7,0.6-9,2.2-12.3,5.7c-0.1,0.1-0.2,0.2-0.4,0.3
		l-0.3,0.2V32h-12.5v44.4c0,21.6,12.5,29.2,27.5,29.2c4.4,0,8.7-1.1,12.5-3.1c5.5-2.8,9.6-7.6,11.5-13.4c2.2-6.3,2.5-13,0.9-19.5
		C328.8,64,325.5,59,320.9,55.6z M315.7,89.1c-3.1,4.9-7.8,6.7-13.4,6.1c-5.1-0.5-8.7-3.2-10.6-7.9c-2.6-6.4-2.6-12.8,0.4-19
		c3.3-6.9,10.9-8.5,17.3-6.2c6.4,2.3,9.1,9.1,9.1,16C318.5,82,317.8,85.8,315.7,89.1z"/>
	<path class="st2" d="M253,105.6c-4.4,0-8.1-0.7-11.3-2.2c-3.1-1.4-5.5-3.2-7.2-5.3c-1.6-1.9-2.7-4.1-3.4-6.5l11.1-4.1
		c0.6,2.3,1.8,4.5,3.7,6c1.8,1.5,4.4,2.3,7.5,2.3c2.5,0,4.4-0.5,5.7-1.6c1.3-1,2.1-2.5,2.1-4.1c0-1.1-0.3-2.2-1-3.1
		c-0.6-0.8-1.8-1.6-3.4-2.3c-1.6-0.7-3.9-1.4-6.9-2.1c-5.1-1.2-9.1-3.1-12.1-5.6c-3-2.5-4.5-6-4.5-10.4c0-3.2,0.7-6,2.2-8.3
		c1.5-2.4,3.7-4.3,6.4-5.5c2.8-1.3,6.2-2,10.2-2c3.9,0,7.4,0.6,10.2,1.9c2.6,1.1,5,2.7,6.8,4.8c1.6,1.8,2.8,4,3.4,6.3l-11.1,4.1
		c-0.5-2-1.7-3.8-3.4-5.1c-1.7-1.3-3.8-1.9-6-1.9c-2.1,0-3.8,0.5-5,1.6c-1.1,0.9-1.8,2.3-1.8,3.8c0,1.1,0.3,2.1,0.8,2.9
		c0.5,0.8,1.5,1.5,2.9,2.2c1.4,0.6,3.5,1.3,6.1,1.9c3.5,0.7,6.8,1.8,10,3.3c2.5,1.1,4.7,2.8,6.3,5c1.5,2.1,2.3,4.8,2.3,8.2
		c0,3.3-0.9,6.2-2.6,8.6c-1.9,2.5-4.4,4.3-7.3,5.4C260.3,105.1,256.7,105.7,253,105.6L253,105.6z"/>
</g>
</svg>
